
      <svg data-logo="logo" xmlns="http://www.w3.org/2000/svg" viewBox="0 0 264 42" width="264" height="42">
        <g id="logogram" transform="
    translate(0, 0.5)
    rotate(0 20.5 20.5)
    
  "><path d="M18.529 14.2867C19.7573 13.9362 19.8794 10.5388 18.8016 6.69839C17.7239 2.85797 15.8544 0.0288177 14.6261 0.379292C13.3977 0.729766 13.2757 4.12714 14.3534 7.96759C15.4312 11.8079 17.3007 14.6371 18.529 14.2867Z" fill="black"/><path d="M26.1248 8.08707C27.2775 4.26882 27.2219 0.869674 26.0007 0.49485C24.7794 0.120017 22.855 2.91144 21.7023 6.72968C20.5497 10.5479 20.6052 13.9471 21.8265 14.3219C23.0477 14.6967 24.9722 11.9053 26.1248 8.08707Z" fill="black"/><path d="M15.7317 16.0579C16.5771 15.0934 14.858 12.1689 11.8921 9.5258C8.92614 6.88272 5.83646 5.52194 4.99109 6.48642C4.14571 7.45092 5.86478 10.3754 8.83075 13.0185C11.7967 15.6616 14.8864 17.0224 15.7317 16.0579Z" fill="black"/><path d="M31.5523 13.2463C34.5689 10.6622 36.3444 7.77208 35.5178 6.79115C34.6913 5.81019 31.5758 7.10985 28.5592 9.6939C25.5426 12.278 23.7672 15.1681 24.5937 16.1491C25.4202 17.13 28.5357 15.8304 31.5523 13.2463Z" fill="black"/><path d="M14.3271 19.0886C14.5213 17.8164 11.5072 16.2928 7.5951 15.6857C3.68285 15.0785 0.353953 15.6177 0.15976 16.8899C-0.0344332 18.1621 2.97961 19.6855 6.89183 20.2927C10.804 20.8999 14.1329 20.3607 14.3271 19.0886Z" fill="black"/><path d="M33.3469 20.5473C37.2702 20.018 40.3134 18.5548 40.1441 17.2789C39.9749 16.0031 36.6572 15.398 32.7338 15.9271C28.8106 16.4564 25.7673 17.9197 25.9366 19.1955C26.1059 20.4713 29.4235 21.0765 33.3469 20.5473Z" fill="black"/><path d="M9.1521 27.4532C12.7688 25.8311 15.28 23.5628 14.7611 22.3867C14.2424 21.2106 10.89 21.5722 7.2733 23.1943C3.65667 24.8164 1.1454 27.0847 1.66421 28.2608C2.18302 29.4369 5.53546 29.0753 9.1521 27.4532Z" fill="black"/><path d="M38.408 28.6255C38.9497 27.46 36.4833 25.1421 32.8991 23.4484C29.3149 21.7547 25.9702 21.3266 25.4285 22.4921C24.8868 23.6577 27.3532 25.9755 30.9374 27.6692C34.5215 29.3629 37.8663 29.7911 38.408 28.6255Z" fill="black"/><path d="M14.9029 32.2399C17.0755 28.9036 17.9717 25.6262 16.9047 24.9198C15.8375 24.2133 13.2112 26.3451 11.0387 29.6814C8.86604 33.0177 7.96985 36.2949 9.03689 37.0015C10.104 37.708 12.7302 35.5762 14.9029 32.2399Z" fill="black"/><path d="M30.8687 37.2253C31.9494 36.5402 31.1175 33.2456 29.0106 29.8668C26.9036 26.488 24.3195 24.3044 23.2388 24.9895C22.1582 25.6746 22.9901 28.9692 25.097 32.348C27.2039 35.7268 29.7881 37.9105 30.8687 37.2253Z" fill="black"/><path d="M22.3061 33.1463C22.3448 29.1553 21.3414 25.9098 20.0649 25.8972C18.7884 25.8846 17.7222 29.1098 17.6835 33.1007C17.6448 37.0918 18.6483 40.3374 19.9247 40.3499C21.2013 40.3625 22.2675 37.1374 22.3061 33.1463Z" fill="black"/></g>
        <g id="logotype" transform="translate(47, 7.3291015625)"><path fill="#C45B00" d="M24.58 27L19.72 27L13.71 7.40L13.55 7.40Q13.59 8.10 13.66 9.51Q13.74 10.92 13.81 12.51Q13.88 14.10 13.88 15.38L13.88 15.38L13.88 27L9.14 27L9.14 2.01L16.36 2.01L22.27 21.12L22.37 21.12L28.64 2.01L35.86 2.01L35.86 27L30.92 27L30.92 15.17Q30.92 13.99 30.96 12.46Q31.00 10.92 31.07 9.53Q31.14 8.13 31.17 7.43L31.17 7.43L31.02 7.43L24.58 27ZM57.35 17.41L57.35 17.41Q57.35 19.81 56.71 21.65Q56.07 23.50 54.84 24.77Q53.62 26.04 51.91 26.69Q50.19 27.34 48.03 27.34L48.03 27.34Q46.02 27.34 44.33 26.69Q42.65 26.04 41.41 24.77Q40.17 23.50 39.50 21.65Q38.82 19.81 38.82 17.41L38.82 17.41Q38.82 14.23 39.95 12.03Q41.08 9.82 43.16 8.68Q45.25 7.53 48.14 7.53L48.14 7.53Q50.82 7.53 52.90 8.68Q54.97 9.82 56.16 12.03Q57.35 14.23 57.35 17.41ZM44.14 17.41L44.14 17.41Q44.14 19.29 44.55 20.57Q44.96 21.86 45.83 22.51Q46.70 23.15 48.10 23.15L48.10 23.15Q49.49 23.15 50.35 22.51Q51.21 21.86 51.61 20.57Q52.02 19.29 52.02 17.41L52.02 17.41Q52.02 15.52 51.61 14.26Q51.21 13.00 50.34 12.37Q49.47 11.74 48.07 11.74L48.07 11.74Q46.00 11.74 45.07 13.16Q44.14 14.58 44.14 17.41ZM69.80 27L64.45 27L57.17 7.89L62.62 7.89L66.31 18.78Q66.62 19.74 66.80 20.80Q66.98 21.86 67.05 22.69L67.05 22.69L67.19 22.69Q67.24 21.79 67.43 20.76Q67.63 19.74 67.95 18.78L67.95 18.78L71.63 7.89L77.08 7.89L69.80 27ZM78.06 7.89L83.28 7.89L83.28 27L78.06 27L78.06 7.89ZM80.68 0.41L80.68 0.41Q81.84 0.41 82.68 0.95Q83.52 1.48 83.52 2.95L83.52 2.95Q83.52 4.41 82.68 4.96Q81.84 5.52 80.68 5.52L80.68 5.52Q79.50 5.52 78.67 4.96Q77.84 4.41 77.84 2.95L77.84 2.95Q77.84 1.48 78.67 0.95Q79.50 0.41 80.68 0.41ZM94.87 7.53L94.87 7.53Q97.52 7.53 99.44 8.55Q101.35 9.57 102.39 11.50Q103.44 13.43 103.44 16.22L103.44 16.22L103.44 18.75L91.11 18.75Q91.20 20.95 92.44 22.21Q93.68 23.46 95.88 23.46L95.88 23.46Q97.71 23.46 99.23 23.09Q100.75 22.71 102.36 21.96L102.36 21.96L102.36 25.99Q100.94 26.69 99.39 27.02Q97.85 27.34 95.64 27.34L95.64 27.34Q92.77 27.34 90.56 26.28Q88.35 25.22 87.09 23.05Q85.83 20.88 85.83 17.58L85.83 17.58Q85.83 14.23 86.97 12.00Q88.11 9.77 90.14 8.65Q92.17 7.53 94.87 7.53ZM94.91 11.24L94.91 11.24Q93.39 11.24 92.39 12.22Q91.39 13.19 91.23 15.28L91.23 15.28L98.55 15.28Q98.53 14.11 98.13 13.21Q97.73 12.30 96.93 11.77Q96.14 11.24 94.91 11.24ZM128.42 20.06L128.42 20.06Q128.42 22.28 127.35 23.92Q126.27 25.56 124.21 26.45Q122.15 27.34 119.21 27.34L119.21 27.34Q117.91 27.34 116.68 27.17Q115.44 27 114.30 26.67Q113.16 26.33 112.14 25.84L112.14 25.84L112.14 20.92Q113.92 21.70 115.83 22.33Q117.74 22.97 119.62 22.97L119.62 22.97Q120.92 22.97 121.72 22.63Q122.51 22.28 122.87 21.69Q123.23 21.09 123.23 20.32L123.23 20.32Q123.23 19.38 122.60 18.71Q121.96 18.04 120.86 17.46Q119.76 16.88 118.38 16.22L118.38 16.22Q117.50 15.81 116.48 15.22Q115.45 14.63 114.53 13.77Q113.61 12.92 113.02 11.70Q112.43 10.47 112.43 8.77L112.43 8.77Q112.43 6.53 113.45 4.94Q114.48 3.35 116.39 2.50Q118.29 1.66 120.89 1.66L120.89 1.66Q122.84 1.66 124.61 2.11Q126.37 2.56 128.31 3.42L128.31 3.42L126.60 7.53Q124.87 6.83 123.50 6.45Q122.14 6.06 120.72 6.06L120.72 6.06Q119.73 6.06 119.03 6.38Q118.32 6.70 117.97 7.27Q117.61 7.84 117.61 8.59L117.61 8.59Q117.61 9.48 118.13 10.09Q118.65 10.70 119.70 11.26Q120.75 11.82 122.32 12.58L122.32 12.58Q124.24 13.48 125.60 14.46Q126.96 15.45 127.69 16.77Q128.42 18.10 128.42 20.06ZM138.67 7.53L138.67 7.53Q141.32 7.53 143.23 8.55Q145.15 9.57 146.19 11.50Q147.23 13.43 147.23 16.22L147.23 16.22L147.23 18.75L134.91 18.75Q135.00 20.95 136.24 22.21Q137.48 23.46 139.68 23.46L139.68 23.46Q141.51 23.46 143.03 23.09Q144.55 22.71 146.16 21.96L146.16 21.96L146.16 25.99Q144.74 26.69 143.19 27.02Q141.65 27.34 139.44 27.34L139.44 27.34Q136.57 27.34 134.36 26.28Q132.14 25.22 130.89 23.05Q129.63 20.88 129.63 17.58L129.63 17.58Q129.63 14.23 130.77 12.00Q131.90 9.77 133.94 8.65Q135.97 7.53 138.67 7.53ZM138.71 11.24L138.71 11.24Q137.19 11.24 136.19 12.22Q135.19 13.19 135.03 15.28L135.03 15.28L142.35 15.28Q142.33 14.11 141.93 13.21Q141.53 12.30 140.73 11.77Q139.94 11.24 138.71 11.24ZM157.55 7.50L157.55 7.50Q161.39 7.50 163.45 9.18Q165.50 10.85 165.50 14.27L165.50 14.27L165.50 27L161.86 27L160.85 24.40L160.71 24.40Q159.89 25.43 159.04 26.08Q158.18 26.73 157.07 27.03Q155.96 27.34 154.37 27.34L154.37 27.34Q152.68 27.34 151.34 26.69Q150.00 26.04 149.23 24.70Q148.46 23.36 148.46 21.29L148.46 21.29Q148.46 18.25 150.59 16.81Q152.73 15.36 157.00 15.21L157.00 15.21L160.32 15.11L160.32 14.27Q160.32 12.76 159.53 12.06Q158.75 11.36 157.34 11.36L157.34 11.36Q155.96 11.36 154.63 11.76Q153.29 12.15 151.96 12.75L151.96 12.75L150.23 9.23Q151.76 8.42 153.64 7.96Q155.53 7.50 157.55 7.50ZM160.32 19.72L160.32 18.15L158.30 18.22Q155.77 18.28 154.79 19.12Q153.81 19.96 153.81 21.33L153.81 21.33Q153.81 22.52 154.51 23.03Q155.21 23.53 156.34 23.53L156.34 23.53Q158.01 23.53 159.16 22.54Q160.32 21.55 160.32 19.72L160.32 19.72ZM179.78 7.53L179.78 7.53Q180.17 7.53 180.69 7.58Q181.21 7.62 181.54 7.69L181.54 7.69L181.14 12.58Q180.89 12.49 180.42 12.45Q179.95 12.41 179.61 12.41L179.61 12.41Q178.60 12.41 177.65 12.66Q176.70 12.92 175.95 13.49Q175.20 14.06 174.76 14.99Q174.32 15.93 174.32 17.28L174.32 17.28L174.32 27L169.11 27L169.11 7.89L173.06 7.89L173.83 11.11L174.09 11.11Q174.65 10.13 175.50 9.32Q176.34 8.51 177.43 8.02Q178.51 7.53 179.78 7.53ZM191.01 27.34L191.01 27.34Q188.18 27.34 186.18 26.31Q184.18 25.27 183.14 23.10Q182.09 20.93 182.09 17.55L182.09 17.55Q182.09 14.05 183.28 11.83Q184.47 9.62 186.58 8.58Q188.69 7.53 191.48 7.53L191.48 7.53Q193.46 7.53 194.90 7.92Q196.35 8.30 197.42 8.83L197.42 8.83L195.89 12.87Q194.65 12.37 193.60 12.05Q192.54 11.74 191.48 11.74L191.48 11.74Q190.11 11.74 189.20 12.38Q188.30 13.02 187.85 14.30Q187.41 15.58 187.41 17.52L187.41 17.52Q187.41 19.41 187.89 20.66Q188.37 21.91 189.27 22.51Q190.18 23.12 191.48 23.12L191.48 23.12Q193.10 23.12 194.36 22.68Q195.63 22.25 196.83 21.46L196.83 21.46L196.83 25.92Q195.63 26.68 194.32 27.01Q193.01 27.34 191.01 27.34ZM199.50 0.41L204.71 0.41L204.71 5.83Q204.71 7.24 204.62 8.53Q204.53 9.81 204.47 10.34L204.47 10.34L204.75 10.34Q205.36 9.35 206.21 8.73Q207.06 8.12 208.08 7.83Q209.11 7.53 210.29 7.53L210.29 7.53Q212.35 7.53 213.89 8.26Q215.43 8.99 216.28 10.53Q217.14 12.08 217.14 14.54L217.14 14.54L217.14 27L211.93 27L211.93 15.84Q211.93 13.79 211.17 12.75Q210.42 11.70 208.85 11.70L208.85 11.70Q207.28 11.70 206.37 12.43Q205.47 13.16 205.09 14.57Q204.71 15.98 204.71 18.01L204.71 18.01L204.71 27L199.50 27L199.50 0.41Z"/></g>
        
      </svg>
    